<?xml version="1.0" standalone="no"?><!DOCTYPE svg PUBLIC "-//W3C//DTD SVG 1.1//EN" "http://www.w3.org/Graphics/SVG/1.1/DTD/svg11.dtd"><svg t="1481713121687" class="icon" style="" viewBox="0 0 1024 1024" version="1.1" xmlns="http://www.w3.org/2000/svg" p-id="1018" xmlns:xlink="http://www.w3.org/1999/xlink" width="24" height="24"><defs><style type="text/css"></style></defs><path d="M1001.73913 489.73913 534.26087 489.73913 534.26087 22.26087c0-12.288-9.97287-22.26087-22.26087-22.26087s-22.26087 9.97287-22.26087 22.26087l0 467.478261L22.26087 489.73913c-12.288 0-22.26087 9.97287-22.26087 22.26087s9.97287 22.26087 22.26087 22.26087l467.478261 0 0 467.478261c0 12.288 9.97287 22.26087 22.26087 22.26087s22.26087-9.97287 22.26087-22.26087L534.26087 534.26087l467.478261 0c12.288 0 22.26087-9.97287 22.26087-22.26087S1014.02713 489.73913 1001.73913 489.73913z" p-id="1019" fill="#6a6a6a"></path></svg>