<?xml version="1.0" standalone="no"?><!DOCTYPE svg PUBLIC "-//W3C//DTD SVG 1.1//EN" "http://www.w3.org/Graphics/SVG/1.1/DTD/svg11.dtd"><svg t="1481709986718" class="icon" style="" viewBox="0 0 1024 1024" version="1.1" xmlns="http://www.w3.org/2000/svg" p-id="1955" xmlns:xlink="http://www.w3.org/1999/xlink" width="24" height="24"><defs><style type="text/css"></style></defs><path d="M899.707183 685.454494c4.437056 3.547803 8.830109 7.116071 13.120832 10.662851 28.594245 23.642466 40.054251 36.758182 41.266869 38.177508 0.001023 0 0.001023 0 0.001023 0l0 0.001023c0-0.001023 0-0.001023 0-0.001023 0.01842 0.021489 2.492774 2.902096 4.953825 5.809309 1.288343 1.521656 2.573615 3.050476 3.52836 4.213975 0.604774 0.735757 1.103124 1.355881 1.447978 1.801019 0.76441 0.986467 1.415232 1.970888 1.964748 2.946099l6.078439 8.840342 0 0.842181c11.972683 23.99653 3.615341 55.640228-3.858888 71.630411-13.18837 28.214599-38.024012 56.827263-56.869219 74.196863-37.927821 34.952047-89.790002 75.071789-154.732084 75.071789-6.785543 0-13.693884-0.442068-20.531616-1.312902-47.301306-5.91471-119.571283-34.363645-198.231807-78.047564-85.384669-47.416939-167.764911-107.0849-231.964072-168.009482-64.206324-60.938907-127.099746-139.17169-177.096441-220.288149C82.636069 437.114452 52.53347 368.165104 46.196135 322.818313c-4.167926-29.697369 3.177366-62.727647 21.24486-95.506191 16.138562-29.27986 40.207747-57.529251 69.606311-81.694627 1.738597-1.429559 3.443425-2.836605 5.123694-4.223185 22.607904-18.661012 42.144866-34.789341 74.55502-46.846958 11.386328-4.810562 22.099321-7.14984 32.732495-7.14984 9.783831 0 19.583011 2.040473 29.125341 6.063089l0.432859 0.188288c4.304026 1.933025 11.413957 5.636371 13.285584 6.617721 5.575995 2.688225 36.071543 18.775622 69.828368 63.641459 10.781554 14.335497 27.754111 38.534642 40.114626 59.569724 20.796652 35.396161 34.332946 65.982784 34.898835 67.268056l0.38681 0.87902 2.619664 7.871271c8.715499 22.211884 3.595898 45.25981-13.762445 61.823044-1.004887 0.99056-2.177596 2.174526-2.200108 2.197038l-1.441838 1.455141-1.088798 0.729617c-0.737804 0.608867-2.200108 1.853208-3.130294 2.644223-2.63399 2.240017-3.433192 2.916423-4.353145 3.584642l-0.803295 0.554632c-11.146874 7.320733-15.159258 9.511631-19.407002 11.831466-2.883677 1.574868-5.864568 3.201925-12.30628 7.220449l-0.298805 0.182149c-10.993378 6.598278-21.413706 10.751878-32.44597 15.151072-8.683776 3.461845-18.525935 7.385201-30.496571 13.220093-17.175171 8.371668-17.781992 32.18912-14.241352 40.080857 21.185508 47.225581 58.806337 95.01705 121.984239 154.960281 55.695486 52.90493 110.428042 86.766133 156.623154 112.912629 5.612834 3.176342 11.167341 4.720511 16.980743 4.720511 16.32378-0.001023 31.986505-12.69923 39.020712-25.241894 5.414313-9.656941 10.487865-19.759019 14.963807-28.670993 3.651157-7.269567 7.099698-14.135952 10.379395-20.091594l0.077771-0.13917c8.170077-14.566764 14.160511-23.918759 17.746176-29.199019 2.559289-3.768837 5.057179-7.446599 7.977695-10.431583 7.04444-9.93835 18.134009-18.295692 29.92659-22.355147 6.628978-2.285043 14.300704-3.494591 22.178115-3.494591 10.161431 0 19.885909 2.044566 27.379581 5.757121l20.11206 10.060123-0.013303 0.025583c1.530866 0.785899 3.105734 1.760087 4.938476 2.89391 2.208295 1.36509 5.425569 3.371794 9.480932 5.931083 7.262404 4.585435 18.848277 11.983939 32.79594 21.185508 2.325975 1.533936 4.744048 3.15997 7.240915 4.868891M719.751624 646.987391c-1.544169 1.786693-8.490372 11.417027-19.800975 31.573089-2.89698 5.265934-6.16542 11.774161-9.626241 18.663058-4.671393 9.3039-9.968026 19.848047-15.839757 30.319539-12.884448 22.973224-40.984437 46.152133-74.720795 46.155203-12.886495 0.001023-25.384134-3.373841-37.146015-10.031471-48.360428-27.371394-105.740276-62.897515-164.642804-118.848828-67.225077-63.783699-107.675348-115.566062-131.148969-167.892825-6.079462-13.551644-7.040347-31.636534-2.570545-48.376801 5.461385-20.457938 18.326391-36.527938 36.226063-45.252647 13.334703-6.500041 23.925922-10.722202 33.271778-14.44806 10.208503-4.069689 18.284435-7.290033 26.394137-12.137435 7.345292-4.577249 10.985192-6.564509 14.198374-8.319479 3.538593-1.932002 6.608511-3.608178 15.692401-9.553587 0.5137-0.430812 1.218758-1.034563 1.963725-1.667989 1.899256-1.6158 3.122107-2.650363 4.02671-3.387144 0.51984-0.51984 1.180895-1.179872 1.775436-1.765203l0.268106-0.258896c5.415336-5.134951 6.647397-10.714016 3.875261-17.557888l-0.449231-1.220804-2.181689-6.5553c-2.25639-5.008061-14.655791-32.073486-32.363082-62.210877-9.456373-16.092513-24.188912-37.95545-37.533848-55.69958-28.254507-37.553291-53.29788-50.570769-54.910611-51.382251l-0.88516-0.441045c-2.90312-1.526773-8.40953-4.350075-11.163247-5.605671-4.464685-1.854231-8.721639-2.756787-13.004175-2.756787-5.209652 0-10.647501 1.288343-17.114796 4.055362l-0.959861 0.382717c-26.177196 9.670244-41.688471 22.473851-63.157435 40.194444-1.701758 1.403976-3.429099 2.830465-5.188162 4.276397-52.253084 42.954301-82.205257 97.869005-76.305897 139.903354 5.501294 39.367613 34.248012 104.174618 76.897368 173.370583 48.192605 78.189803 108.718097 153.50514 170.428577 212.076116 61.769832 58.620096 141.200906 116.122741 223.658919 161.91467 73.16537 40.631396 141.757584 68.003813 183.485965 73.221652 5.176906 0.660032 10.342556 0.991584 15.405875 0.991584 39.618323 0 78.783321-19.811208 126.992299-64.238047 15.247262-14.053064 36.845163-38.575574 47.52848-61.430094 6.218632-13.30605 8.000208-30.940686 3.736091-36.998659l-3.729951-5.298679 0-0.127913-0.39295-0.571005c-1.669012-2.01796-4.955872-5.891174-7.724938-9.113565-0.082888-0.094144-10.386558-11.867282-36.272112-33.269731-24.552186-20.293185-52.356438-41.177841-72.559573-54.501288-22.86373-15.084557-40.020482-25.727964-43.61024-27.91477l-19.404955-9.707083c-0.977257-0.484024-4.254907-1.468444-9.141194-1.468444-3.295046 0-6.519484 0.460488-8.846482 1.261737-4.65195 1.601474-8.987698 5.702885-10.331299 8.048303L719.751624 646.987391z" p-id="1956" fill="#929292"></path></svg>