<?xml version="1.0" standalone="no"?><!DOCTYPE svg PUBLIC "-//W3C//DTD SVG 1.1//EN" "http://www.w3.org/Graphics/SVG/1.1/DTD/svg11.dtd"><svg t="1499388429094" class="icon" style="" viewBox="0 0 1024 1024" version="1.1" xmlns="http://www.w3.org/2000/svg" p-id="5085" xmlns:xlink="http://www.w3.org/1999/xlink" width="200" height="200"><defs><style type="text/css"></style></defs><path d="M307.492571 305.883429c0-4.681143-1.170286-9.216-3.218285-13.458286-30.427429-61.147429-5.558857-135.460571 55.588571-165.888s135.460571-5.558857 165.888 55.588571c8.484571 17.115429 13.019429 35.986286 13.019429 55.149715 0 2.340571 0 4.681143-0.146286 7.021714-0.731429 12.580571 6.582857 24.283429 18.285714 28.964571l0.585143 0.146286c18.285714 7.460571 38.326857-5.705143 39.497143-25.453714 0.292571-6.144 0.438857-12.434286 0.146286-18.578286-3.949714-94.500571-80.603429-170.861714-175.104-174.372571-100.644571-3.803429-185.197714 74.605714-189.001143 175.104-1.170286 30.72 5.412571 61.293714 19.309714 88.795428 13.604571 27.794286 55.149714 17.846857 55.149714-13.019428z" p-id="5086" fill="#F98700"></path><path d="M739.913143 391.460571c-11.995429-0.292571-23.990857 2.048-35.108572 6.875429-19.017143-37.888-63.780571-55.296-103.424-39.936-15.36-40.813714-59.830857-62.610286-101.522285-49.883429V241.517714c0-45.348571-35.986286-83.236571-81.334857-83.821714-45.641143-0.585143-83.236571 35.84-83.968 81.481143V511.707429c0 4.096-3.218286 7.314286-7.314286 7.314285-2.048 0-4.096-0.877714-5.558857-2.486857l-7.021715-8.192c-29.549714-34.816-81.773714-39.058286-116.443428-9.508571s-39.058286 81.773714-9.508572 116.443428c0.438857 0.438857 0.877714 1.024 1.316572 1.462857l89.526857 102.985143c18.285714 21.065143 34.084571 42.861714 49.298286 64.073143 28.525714 39.497143 55.588571 76.946286 95.085714 105.472 45.056 32.475429 98.157714 47.689143 167.204571 47.689143 106.349714 0 162.084571-48.566857 190.171429-89.234286 37.449143-54.272 39.350857-111.616 39.350857-122.587428V475.428571c-0.146286-45.056-35.693714-82.797714-80.749714-83.968z m22.089143 333.677715c0 17.554286-6.144 56.32-28.964572 89.380571-29.257143 42.422857-76.946286 63.926857-141.897143 63.926857-121.856 0-160.914286-54.125714-214.893714-129.024-16.091429-22.235429-32.621714-45.202286-52.516571-68.169143l-89.234286-102.546285c-4.096-4.534857-6.290286-10.386286-6.290286-16.384 0.146286-13.312 10.971429-23.990857 24.283429-23.990857 6.875429 0 13.458286 3.072 17.993143 8.338285l71.241143 81.92c17.700571 20.48 51.346286 7.899429 51.346285-19.163428v-368.64c0-13.458286 10.971429-25.014857 24.576-24.722286 13.165714 0.292571 23.698286 10.971429 23.698286 24.137143l0.146286 254.537143c0 16.091429 13.165714 29.257143 29.257143 29.257143s29.257143-13.165714 29.257142-29.257143v-106.496c0-13.458286 10.971429-25.014857 24.576-24.722286 13.165714 0.292571 23.698286 10.971429 23.698286 24.137143v137.947428c0 16.091429 13.165714 29.257143 29.257143 29.257143s29.257143-13.165714 29.257143-29.257143l0.146286-89.380571c0-13.458286 10.971429-25.014857 24.576-24.722286 13.165714 0.292571 23.698286 10.971429 23.698285 24.137143v115.419429c0 16.091429 13.165714 29.257143 29.257143 29.257143s29.257143-13.165714 29.257143-29.257143v-76.068572c0-13.458286 10.971429-25.014857 24.576-24.722285 13.165714 0.292571 23.698286 10.971429 23.698286 24.137142v250.733715z" p-id="5087" fill="#F98700"></path></svg>