<?xml version="1.0" standalone="no"?><!DOCTYPE svg PUBLIC "-//W3C//DTD SVG 1.1//EN" "http://www.w3.org/Graphics/SVG/1.1/DTD/svg11.dtd"><svg t="1486528160207" class="icon" style="" viewBox="0 0 1024 1024" version="1.1" xmlns="http://www.w3.org/2000/svg" p-id="1429" xmlns:xlink="http://www.w3.org/1999/xlink" width="24" height="24"><defs><style type="text/css"></style></defs><path d="M511.5 127.2l114.2 231.4c7.4 15 21.8 25.5 38.4 27.9l255.3 37.1-184.8 180c-12 11.7-17.5 28.6-14.7 45.1L763.5 903 535.2 782.9c-7.3-3.8-15.5-5.9-23.7-5.9s-16.4 2-23.7 5.9L259.4 903 303 648.7c2.8-16.5-2.6-33.4-14.7-45.1L103.6 423.5l255.3-37.1c16.6-2.4 30.9-12.8 38.4-27.9l114.2-231.3m0-41.4c-7.5 0-14.9 3.9-18.8 11.7L370.4 345.3c-3.1 6.2-9 10.5-15.8 11.5L81.1 396.5c-17.2 2.5-24 23.6-11.6 35.7l197.9 192.9c4.9 4.8 7.2 11.7 6 18.5L226.7 916c-2.3 13.5 8.4 24.5 20.6 24.5 3.2 0 6.5-0.8 9.8-2.5l244.6-128.6c3.1-1.6 6.4-2.4 9.7-2.4 3.3 0 6.7 0.8 9.7 2.4L765.7 938c3.2 1.7 6.5 2.5 9.8 2.5 12.2 0 23-11 20.6-24.5l-46.7-272.4c-1.2-6.8 1.1-13.7 6-18.5l197.9-192.9c12.4-12.1 5.6-33.2-11.6-35.7l-273.5-39.7c-6.8-1-12.7-5.3-15.8-11.5L530.3 97.5c-3.9-7.8-11.4-11.7-18.8-11.7z" fill="#8a8a8a" p-id="1430"></path></svg>