<?xml version="1.0" standalone="no"?><!DOCTYPE svg PUBLIC "-//W3C//DTD SVG 1.1//EN" "http://www.w3.org/Graphics/SVG/1.1/DTD/svg11.dtd"><svg t="1484710832663" class="icon" style="" viewBox="0 0 1024 1024" version="1.1" xmlns="http://www.w3.org/2000/svg" p-id="2417" xmlns:xlink="http://www.w3.org/1999/xlink" width="16" height="16"><defs><style type="text/css"></style></defs><path d="M335.421792 706.257286c7.147063 7.145747 18.724201 7.145747 25.873311 0l455.597656-547.042097c7.14911-7.14677 7.14911-18.741853 0-25.889647-7.147063-7.128351-18.726247-7.128351-25.871264 0L335.421792 680.385035C328.273706 687.531805 328.273706 699.110515 335.421792 706.257286zM804.867395 511.289825c-10.097376 0-18.298488 8.184403-18.298488 18.297738L786.568908 822.321698c0 20.189831-16.38585 36.592406-36.592882 36.592406L201.071533 858.914104c-20.208055 0-36.592882-16.401552-36.592882-36.592406L164.478651 273.440719c0-20.225647 16.384827-36.591383 36.592882-36.591383l256.15427 0c10.096353 0 18.297465-8.200776 18.297465-18.295692 0-10.113335-8.201112-18.295692-18.297465-18.295692l-256.15427 0c-40.418158 0-73.186788 32.768311-73.186788 73.183789L127.884745 822.321698c0 40.416502 32.76863 73.186859 73.186788 73.186859l548.904492 0c40.416111 0 73.187811-32.767288 73.187811-73.186859L823.163837 529.587564C823.163837 519.473205 814.963748 511.289825 804.867395 511.289825z" p-id="2418" fill="#bfbfbf"></path></svg>