<?xml version="1.0" standalone="no"?><!DOCTYPE svg PUBLIC "-//W3C//DTD SVG 1.1//EN" "http://www.w3.org/Graphics/SVG/1.1/DTD/svg11.dtd"><svg t="1495591599508" class="icon" style="" viewBox="0 0 1024 1024" version="1.1" xmlns="http://www.w3.org/2000/svg" p-id="2054" xmlns:xlink="http://www.w3.org/1999/xlink" width="48" height="48"><defs><style type="text/css"></style></defs><path d="M809.654272 829.29664c0 10.187776-8.261632 18.450432-18.432 18.450432L144.950272 847.747072c-10.187776 0-18.432-8.261632-18.432-18.450432L126.518272 294.786048c0-10.187776 8.244224-18.432 18.432-18.432l166.211584 0 0-36.864L127.670272 239.490048c-20.358144 0-36.864 16.488448-36.864 36.864l0 571.392c0 20.358144 16.505856 36.845568 36.864 36.845568L808.502272 884.591616c20.358144 0 36.864-16.488448 36.864-36.845568l0-221.184-35.712 0L809.654272 829.29664zM932.864 250.451968l0.180224-0.342016-8.045568-4.391936-22.93248-13.78816-0.59392 0.954368-178.59584-97.487872-17.640448 33.030144 150.173696 81.036288c-229.896192 27.305984-407.501824 189.737984-407.501824 427.91424 0 11.052032 0.900096 21.869568 1.655808 32.7424l42.210304-0.018432c-0.864256-11.052032-1.691648-22.104064-1.691648-33.389568 0-218.73664 164.484096-363.780096 376.380416-387.03616l-89.730048 145.584128 31.806464 19.781632 105.929728-173.717504 0.971776 0.52224 13.121536-23.652352 4.608-7.560192L932.864 250.451968z" p-id="2055" fill="#8a8a8a"></path></svg>