<svg xmlns="http://www.w3.org/2000/svg" xmlns:xlink="http://www.w3.org/1999/xlink" preserveAspectRatio="xMidYMid" width="39" height="39" viewBox="0 0 39 39">
  <defs>
    <style>
      .cls-1, .cls-2 {
        fill: #f98700;
      }

      .cls-1 {
        stroke: #f98700;
        stroke-linejoin: round;
        stroke-width: 1px;
        fill-opacity: 0.15;
      }

      .cls-2 {
        fill-rule: evenodd;
      }
    </style>
  </defs>
  <rect width="39" height="39" rx="8" ry="8" class="cls-1"/>
  <path d="M32.227,27.236 L29.648,27.236 L24.648,20.049 L22.383,22.158 L22.383,27.236 L20.430,27.236 L20.430,12.939 L22.383,12.939 L22.383,19.892 L29.336,12.939 L32.070,12.939 L26.055,18.720 L32.227,27.236 ZM13.867,21.220 L9.336,21.220 L9.336,27.236 L7.383,27.236 L7.383,12.939 L13.867,12.939 C16.575,13.044 17.981,14.372 18.086,16.924 C17.930,19.685 16.523,21.117 13.867,21.220 ZM13.242,14.502 L9.336,14.502 L9.336,19.502 L13.164,19.502 C15.143,19.502 16.133,18.642 16.133,16.924 C16.133,15.361 15.168,14.554 13.242,14.502 Z" class="cls-2"/>
</svg>
