<svg xmlns="http://www.w3.org/2000/svg" xmlns:xlink="http://www.w3.org/1999/xlink" preserveAspectRatio="xMidYMid" width="39" height="39" viewBox="0 0 39 39">
  <defs>
    <style>
      .cls-1, .cls-2 {
        fill: #f98700;
      }

      .cls-1 {
        stroke: #f98700;
        stroke-linejoin: round;
        stroke-width: 1px;
        fill-opacity: 0.15;
      }

      .cls-2 {
        fill-rule: evenodd;
      }
    </style>
  </defs>
  <rect width="39" height="39" rx="8" ry="8" class="cls-1"/>
  <path d="M17.000,14.000 L13.000,14.000 L13.000,18.000 L11.000,18.000 L11.000,14.000 L7.000,14.000 L7.000,12.000 L11.000,12.000 L11.000,8.000 L13.000,8.000 L13.000,12.000 L17.000,12.000 L17.000,14.000 Z" class="cls-2"/>
  <path d="M16.243,29.828 L14.828,31.243 L12.000,28.414 L9.172,31.243 L7.757,29.828 L10.586,27.000 L7.757,24.172 L9.172,22.757 L12.000,25.586 L14.828,22.757 L16.243,24.172 L13.414,27.000 L16.243,29.828 Z" class="cls-2"/>
  <path d="M22.000,14.000 L22.000,12.000 L32.000,12.000 L32.000,14.000 L22.000,14.000 Z" class="cls-2"/>
  <path d="M22.000,29.000 L22.000,27.000 L32.000,27.000 L32.000,29.000 L22.000,29.000 ZM22.000,23.000 L32.000,23.000 L32.000,25.000 L22.000,25.000 L22.000,23.000 Z" class="cls-2"/>
</svg>
