<?xml version="1.0" standalone="no"?><!DOCTYPE svg PUBLIC "-//W3C//DTD SVG 1.1//EN" "http://www.w3.org/Graphics/SVG/1.1/DTD/svg11.dtd"><svg t="1481853743908" class="icon" style="" viewBox="0 0 1024 1024" version="1.1" xmlns="http://www.w3.org/2000/svg" p-id="986" xmlns:xlink="http://www.w3.org/1999/xlink" width="24" height="24"><defs><style type="text/css"></style></defs><path d="M822.887 514.242c0-122.402-0.274-244.808 0.172-367.211 0.173-34.033-12.116-60.015-43.36-74.761-30.351-14.3-57.437-8.378-83.417 13.077-52.444 43.153-106.162 84.723-159.363 126.981-96.282 76.532-192.808 152.737-288.82 229.685-62.527 50.171-63.801 89.282-2.959 137.974 153.065 122.543 306.784 244.206 460.568 365.734 8.605 6.744 20.338 11.512 31.147 12.991 48.592 6.521 85.824-27.184 85.925-77.273 0.279-122.403 0.107-244.791 0.107-367.196z" p-id="987" fill="#666666"></path></svg>