<?xml version="1.0" standalone="no"?><!DOCTYPE svg PUBLIC "-//W3C//DTD SVG 1.1//EN" "http://www.w3.org/Graphics/SVG/1.1/DTD/svg11.dtd"><svg t="1481619542738" class="icon" style="" viewBox="0 0 1024 1024" version="1.1" xmlns="http://www.w3.org/2000/svg" p-id="2406" xmlns:xlink="http://www.w3.org/1999/xlink" width="24" height="24"><defs><style type="text/css"></style></defs><path d="M342.117868 511.753383l399.23268-399.221424c11.102872-11.090593 11.102872-29.109991 0-40.177048-11.090593-11.109012-29.092595-11.109012-40.188304 0L286.705837 486.805178c-2.229784 1.246387-4.973268 0.947582-6.874571 2.843768-6.076392 6.076392-8.508791 14.167674-7.936763 22.103414-0.572028 7.941879 1.860371 16.034185 7.936763 22.097274 1.902326 1.908466 4.650927 1.603521 6.886851 2.856048l414.444127 414.461523c11.096732 11.084453 29.097712 11.084453 40.188304 0 11.102872-11.114129 11.102872-29.091572 0-40.200584L342.117868 511.753383z" p-id="2407" fill="#ffffff"></path></svg>