<?xml version="1.0" standalone="no"?><!DOCTYPE svg PUBLIC "-//W3C//DTD SVG 1.1//EN" "http://www.w3.org/Graphics/SVG/1.1/DTD/svg11.dtd"><svg t="1481261946786" class="icon" style="" viewBox="0 0 1024 1024" version="1.1" xmlns="http://www.w3.org/2000/svg" p-id="1070" xmlns:xlink="http://www.w3.org/1999/xlink" width="12" height="12"><defs><style type="text/css"></style></defs><path d="M879.104 1.088l-274.496 466.56 216.256 0 0 103.104L568.896 570.752l0 142.08 252.032 0 0 104.384L568.896 817.216 568.896 1024 439.232 1024l0-206.848L177.92 817.152l0-104.384 261.312 0 0-142.08L177.92 570.688 177.92 467.584l222.912 0-271.872-466.56L275.2 1.024c126.976 231.744 204.16 378.688 231.552 440.768l2.624 0C518.656 416.256 544 364.736 585.408 287.168l155.456-286.144L879.104 1.024z" p-id="1071" fill="#A4A4A4"></path></svg>