<?xml version="1.0" standalone="no"?><!DOCTYPE svg PUBLIC "-//W3C//DTD SVG 1.1//EN" "http://www.w3.org/Graphics/SVG/1.1/DTD/svg11.dtd"><svg t="1481713871571" class="icon" style="" viewBox="0 0 1024 1024" version="1.1" xmlns="http://www.w3.org/2000/svg" p-id="2829" xmlns:xlink="http://www.w3.org/1999/xlink" width="24" height="24"><defs><style type="text/css"></style></defs><path d="M512 167.872c-187.2 0-339.136 149.952-339.136 334.976 0 185.088 151.936 334.976 339.136 334.976 187.264 0 339.136-149.888 339.136-334.976C851.136 317.824 699.264 167.872 512 167.872l0 40.96c164.736 0 298.176 131.712 298.176 294.016 0 162.368-133.44 294.016-298.176 294.016-164.736 0-298.176-131.712-298.176-294.016 0-162.304 133.44-294.016 298.176-294.016L512 167.872 512 167.872 512 167.872zM512 167.872" p-id="2830" fill="#8a8a8a"></path><path d="M660.736 850.624c139.84-58.112 233.792-194.048 233.792-347.776 0-208.32-171.2-377.344-382.592-377.344-211.328 0-382.592 169.024-382.592 377.344 0 46.528 8.512 91.904 24.96 134.4 4.096 10.56-1.152 22.4-11.712 26.496-10.56 4.032-22.4-1.216-26.496-11.776-0.896-2.24-1.728-4.48-2.56-6.72-1.536 0.064-3.136 0.064-4.672 0.064C48.768 645.312 0 597.184 0 537.792 0 483.2 41.28 438.08 94.656 431.168 129.088 234.304 302.848 84.544 512 84.544s382.912 149.696 417.344 346.624C982.72 438.08 1024 483.2 1024 537.792c0 59.392-48.768 107.52-108.928 107.52-1.536 0-3.2 0-4.736-0.064-39.936 108.928-124.544 198.08-234.752 243.584-1.024 28.096-24.384 50.624-53.12 50.624-29.312 0-53.12-23.424-53.12-52.416 0-28.928 23.808-52.416 53.12-52.416C637.504 834.56 651.072 840.768 660.736 850.624L660.736 850.624zM660.736 850.624" p-id="2831" fill="#8a8a8a"></path><path d="M512 594.496c-49.472 0-94.144-8.96-133.12-23.808C365.312 565.568 353.472 560 343.488 554.56c-5.824-3.2-9.6-5.568-11.328-6.656C316.032 536.64 294.848 552.448 301.056 571.136 330.688 660.608 415.36 722.24 512 722.24s181.248-61.632 210.944-151.104c6.208-18.688-14.976-34.496-31.104-23.232-1.664 1.152-5.504 3.52-11.328 6.656-9.984 5.44-21.888 11.008-35.392 16.128C606.144 585.536 561.472 594.496 512 594.496L512 594.496 512 594.496zM512 594.496" p-id="2832" fill="#8a8a8a"></path></svg>