<?xml version="1.0" standalone="no"?>
<!DOCTYPE svg PUBLIC "-//W3C//DTD SVG 20010904//EN"
 "http://www.w3.org/TR/2001/REC-SVG-20010904/DTD/svg10.dtd">
<svg version="1.0" xmlns="http://www.w3.org/2000/svg"
 width="87.000000pt" height="87.000000pt" viewBox="0 0 87.000000 87.000000"
 preserveAspectRatio="xMidYMid meet">

<g transform="translate(0.000000,87.000000) scale(0.100000,-0.100000)"
fill="#000000" stroke="none">
<path d="M140 670 c0 -20 7 -20 305 -20 298 0 305 0 305 20 0 20 -7 20 -305
20 -298 0 -305 0 -305 -20z"/>
<path d="M230 470 c0 -19 7 -20 210 -20 203 0 210 1 210 20 0 19 -7 20 -210
20 -203 0 -210 -1 -210 -20z"/>
<path d="M327 280 c5 -19 14 -20 119 -20 93 0 114 3 114 14 0 10 14 16 43 19
23 2 -31 4 -120 5 -157 2 -161 1 -156 -18z"/>
</g>
</svg>
