<?xml version="1.0" standalone="no"?><!DOCTYPE svg PUBLIC "-//W3C//DTD SVG 1.1//EN" "http://www.w3.org/Graphics/SVG/1.1/DTD/svg11.dtd"><svg t="1481709784789" class="icon" style="" viewBox="0 0 1024 1024" version="1.1" xmlns="http://www.w3.org/2000/svg" p-id="1021" xmlns:xlink="http://www.w3.org/1999/xlink" width="24" height="24"><defs><style type="text/css"></style></defs><path d="M204.000696 956.112843c13.216-101.930507 24.633027-196.977233 38.504966-291.656593 3.118014-21.272489-0.898463-34.994002-16.012695-49.89027-62.394049-61.483306-123.591853-124.186394-185.116091-186.54872-7.888667-8.000208-15.089673-16.671705-26.496467-29.348422 100.709703-18.405185 195.364503-37.235043 290.623054-52.233642 31.382754-4.939499 49.574069-18.253736 64.736397-45.50438 45.373397-81.518618 93.480045-161.511487 142.919037-246.194168 49.716308 85.202521 98.585319 165.903517 144.000672 248.497631 14.874779 27.070542 33.641191 37.998429 62.71639 42.812061 95.312786 15.790638 190.20704 34.07098 290.499234 52.345182-9.360182 11.197016-15.237029 19.314904-22.188348 26.363438C925.865447 487.993237 863.725178 551.424918 800.604582 613.866039c-14.729469 14.575973-20.25123 27.826765-17.032932 49.584302 14.153348 95.741551 25.64303 191.878099 38.70451 292.606221-94.623078-41.874713-185.563276-81.087806-275.442306-122.598222-23.614837-10.906397-42.388413-11.607362-66.353221-0.49221C390.5136 874.685299 299.382043 913.88816 204.000696 956.112843z" p-id="1022" fill="#ffae00"></path></svg>