<?xml version="1.0" standalone="no"?><!DOCTYPE svg PUBLIC "-//W3C//DTD SVG 1.1//EN" "http://www.w3.org/Graphics/SVG/1.1/DTD/svg11.dtd"><svg t="1481766941088" class="icon" style="" viewBox="0 0 1024 1024" version="1.1" xmlns="http://www.w3.org/2000/svg" p-id="2657" xmlns:xlink="http://www.w3.org/1999/xlink" width="24" height="24"><defs><style type="text/css"></style></defs><path d="M925.993361 354.380146c-24.183795-57.178257-58.800197-108.522646-102.884228-152.6077s-95.427396-78.700433-152.606677-102.885252C611.286796 73.841775 548.403606 61.142545 483.64572 61.142545c-64.803935 0-127.688147 12.69923-186.902784 37.744649-57.17928 24.184819-108.523669 58.800197-152.608723 102.885252-44.085054 44.085054-78.700433 95.42842-102.885252 152.6077C16.202519 413.595806 3.503289 476.478995 3.503289 541.310559c0 64.803935 12.69923 127.687124 37.745672 186.902784 24.184819 57.17928 58.800197 108.523669 102.885252 152.608723 44.085054 44.084031 95.429443 78.69941 152.608723 102.884228 59.21566 25.046443 122.098849 37.745672 186.902784 37.745672 64.757886 0 127.641075-12.69923 186.857758-37.745672 57.17928-24.184819 108.522646-58.800197 152.606677-102.885252 44.084031-44.084031 78.700433-95.42842 102.884228-152.6077 25.047466-59.21566 37.746696-122.098849 37.746696-186.902784C963.740056 476.478995 951.040826 413.596829 925.993361 354.380146zM483.64572 955.294199c-228.271984 0-413.985686-185.711655-413.985686-413.984662 0-228.29859 185.713702-414.011268 413.985686-414.011268 228.224912 0 413.93759 185.712679 413.93759 414.011268C897.583311 769.582543 711.870632 955.294199 483.64572 955.294199zM633.206014 339.892177c-0.007163 0.007163-0.01535 0.01535-0.022513 0.022513L479.337601 494.054279 325.202105 340.209402c-13.346983-13.3214-34.960233-13.308097-48.273447 0.004093-0.008186 0.008186-0.016373 0.017396-0.023536 0.023536-13.328563 13.354146-13.307074 34.984792 0.046049 48.313356L431.088714 542.396287l-153.843854 154.135496c-13.328563 13.354146-13.307074 34.984792 0.064468 48.330752 13.346983 13.3214 34.958186 13.308097 48.288796-0.023536 0.007163-0.00614 0.016373-0.016373 0.023536-0.022513l153.843854-154.136519 154.135496 153.843854c13.346983 13.322423 34.95921 13.30912 48.28982-0.021489 0.00921-0.008186 0.017396-0.016373 0.023536-0.023536 13.31219-13.334703 13.289678-34.966373-0.063445-48.295959L527.714402 542.336936l153.8459-154.135496c13.32754-13.354146 13.30912-34.984792-0.046049-48.314379C668.150898 326.548264 646.537647 326.560544 633.206014 339.892177z" p-id="2658" fill="#707070"></path></svg>