<?xml version="1.0" standalone="no"?><!DOCTYPE svg PUBLIC "-//W3C//DTD SVG 1.1//EN" "http://www.w3.org/Graphics/SVG/1.1/DTD/svg11.dtd"><svg t="1481957549079" class="icon" style="" viewBox="0 0 1024 1024" version="1.1" xmlns="http://www.w3.org/2000/svg" p-id="1821" xmlns:xlink="http://www.w3.org/1999/xlink" width="24" height="24"><defs><style type="text/css"></style></defs><path d="M852.292801 171.70771c18.776645 0 34.030048 15.269775 34.030048 34.029024l0 170.146145c0 18.759249-15.253402 34.029024-34.030048 34.029024L614.088608 409.911904 614.088608 205.736734c0-18.759249 15.252379-34.029024 34.028001-34.029024L852.292801 171.70771M375.883391 171.70771c18.775622 0 34.030048 15.269775 34.030048 34.029024l0 204.175169-238.205217 0c-18.775622 0-34.029024-15.269775-34.029024-34.029024L137.679198 205.736734c0-18.759249 15.253402-34.029024 34.029024-34.029024L375.883391 171.70771M852.292801 614.088096c18.776645 0 34.030048 15.269775 34.030048 34.029024l0 170.146145c0 18.759249-15.253402 34.029024-34.030048 34.029024L648.116609 852.29229c-18.775622 0-34.028001-15.269775-34.028001-34.029024L614.088608 614.088096 852.292801 614.088096M409.913439 614.088096l0 204.175169c0 18.759249-15.254425 34.029024-34.030048 34.029024L171.708222 852.29229c-18.775622 0-34.029024-15.269775-34.029024-34.029024L137.679198 648.117121c0-18.759249 15.253402-34.029024 34.029024-34.029024L409.913439 614.088096M852.292801 103.648638 648.116609 103.648638c-56.392358 0-102.087073 45.693692-102.087073 102.088096l0 272.234241 306.262242 0c56.394405 0 102.088096-45.693692 102.088096-102.087073L954.379874 205.736734C954.379874 149.34233 908.687206 103.648638 852.292801 103.648638L852.292801 103.648638zM375.883391 103.648638 171.708222 103.648638c-56.394405 0-102.088096 45.693692-102.088096 102.088096l0 170.146145c0 56.393381 45.693692 102.087073 102.088096 102.087073l306.263266 0L477.971487 205.736734C477.971487 149.34233 432.277796 103.648638 375.883391 103.648638L375.883391 103.648638zM852.292801 546.029024 546.029536 546.029024l0 272.234241c0 56.393381 45.693692 102.088096 102.087073 102.088096l204.175169 0c56.394405 0 102.088096-45.693692 102.088096-102.088096L954.379874 648.117121C954.379874 591.722716 908.687206 546.029024 852.292801 546.029024L852.292801 546.029024zM477.971487 546.029024 171.708222 546.029024c-56.394405 0-102.088096 45.693692-102.088096 102.088096l0 170.146145c0 56.393381 45.693692 102.088096 102.088096 102.088096l204.175169 0c56.394405 0 102.088096-45.693692 102.088096-102.088096L477.971487 546.029024 477.971487 546.029024z" p-id="1822" fill="#a9a9a9"></path></svg>