<svg xmlns="http://www.w3.org/2000/svg" xmlns:xlink="http://www.w3.org/1999/xlink" preserveAspectRatio="xMidYMid" width="39" height="39" viewBox="0 0 39 39">
  <defs>
    <style>
      .cls-1, .cls-2 {
        fill: #f98700;
      }

      .cls-1 {
        stroke: #f98700;
        stroke-linejoin: round;
        stroke-width: 1px;
        fill-opacity: 0.15;
      }

      .cls-2 {
        fill-rule: evenodd;
      }
    </style>
  </defs>
  <rect width="39" height="39" rx="8" ry="8" class="cls-1"/>
  <path d="M22.697,29.962 L23.500,29.962 C23.500,29.962 23.162,30.027 22.697,29.962 ZM19.500,29.962 L16.303,29.962 C17.216,29.834 18.627,29.193 19.000,26.500 C19.000,26.546 19.500,26.500 19.500,26.500 C19.500,26.500 20.000,26.546 20.000,26.500 C20.373,29.193 21.785,29.834 22.697,29.962 L19.500,29.962 ZM15.500,29.962 L16.303,29.962 C15.838,30.027 15.500,29.962 15.500,29.962 Z" class="cls-2"/>
  <path d="M25.500,20.000 L25.500,17.500 L30.000,18.500 L30.000,21.000 L25.500,20.000 ZM19.500,24.500 C16.739,24.500 14.500,22.261 14.500,19.500 C14.500,16.739 16.739,14.500 19.500,14.500 C22.261,14.500 24.500,16.739 24.500,19.500 C24.500,22.261 22.261,24.500 19.500,24.500 ZM19.500,16.000 C17.567,16.000 16.000,17.567 16.000,19.500 C16.000,21.433 17.567,23.000 19.500,23.000 C21.433,23.000 23.000,21.433 23.000,19.500 C23.000,17.567 21.433,16.000 19.500,16.000 ZM19.500,22.000 C18.119,22.000 17.000,20.881 17.000,19.500 C17.000,18.119 18.119,17.000 19.500,17.000 C20.881,17.000 22.000,18.119 22.000,19.500 C22.000,20.881 20.881,22.000 19.500,22.000 ZM9.000,18.500 L13.500,17.500 L13.500,20.000 L9.000,21.000 L9.000,18.500 Z" class="cls-2"/>
  <path d="M19.500,32.000 C12.596,32.000 7.000,26.404 7.000,19.500 C7.000,12.596 12.596,7.000 19.500,7.000 C26.404,7.000 32.000,12.596 32.000,19.500 C32.000,26.404 26.404,32.000 19.500,32.000 ZM19.500,9.000 C13.701,9.000 9.000,13.701 9.000,19.500 C9.000,25.299 13.701,30.000 19.500,30.000 C25.299,30.000 30.000,25.299 30.000,19.500 C30.000,13.701 25.299,9.000 19.500,9.000 Z" class="cls-2"/>
</svg>
