<?xml version="1.0" standalone="no"?><!DOCTYPE svg PUBLIC "-//W3C//DTD SVG 1.1//EN" "http://www.w3.org/Graphics/SVG/1.1/DTD/svg11.dtd"><svg t="1481710402260" class="icon" style="" viewBox="0 0 1024 1024" version="1.1" xmlns="http://www.w3.org/2000/svg" p-id="2794" xmlns:xlink="http://www.w3.org/1999/xlink" width="24" height="24"><defs><style type="text/css"></style></defs><path d="M512 549.8c-89.8 0-163-73-163-163s73-163 163-163 163 73 163 163S601.8 549.8 512 549.8zM512 279.6c-59.2 0-107.2 48.2-107.2 107.2 0 59.2 48.2 107.2 107.2 107.2 59.2 0 107.2-48.2 107.2-107.2C619.2 327.6 571.2 279.6 512 279.6z" p-id="2795" fill="#8a8a8a"></path><path d="M512 1006.4 512 1006.4c-8.2 0-16-3.6-21.2-9.8-14.2-16.8-348-413.4-348-609.8C142.8 183.2 308.4 17.6 512 17.6c203.6 0 369.2 165.6 369.2 369.2 0 196.6-333.8 593-348 609.8C528 1002.8 520.2 1006.4 512 1006.4zM512 73.2c-173 0-313.6 140.8-313.6 313.6 0 136.2 209.6 421 313.6 548.4 104-127.4 313.6-412.2 313.6-548.4C825.6 213.8 685 73.2 512 73.2z" p-id="2796" fill="#8a8a8a"></path></svg>