<?xml version="1.0" standalone="no"?><!DOCTYPE svg PUBLIC "-//W3C//DTD SVG 1.1//EN" "http://www.w3.org/Graphics/SVG/1.1/DTD/svg11.dtd"><svg t="1481610936672" class="icon" style="" viewBox="0 0 1024 1024" version="1.1" xmlns="http://www.w3.org/2000/svg" p-id="1014" xmlns:xlink="http://www.w3.org/1999/xlink" width="32" height="32"><defs><style type="text/css"></style></defs><path d="M570.032 412.681c13.149-13.148 20.83-31.626 20.83-50.242 0-18.582-7.682-37.024-20.83-50.173-13.15-13.148-31.66-20.83-50.207-20.83-18.615 0-37.057 7.683-50.207 20.83-13.15 13.15-20.83 31.591-20.83 50.173 0 18.615 7.68 37.094 20.83 50.242 13.15 13.183 31.59 20.796 50.207 20.796 18.546 0 37.058-7.613 50.207-20.796z" fill="#8B8B8B" p-id="1015"></path><path d="M514.841 840.375c13.807 0 26.817-6.367 35.053-17.232 76.295-100.329 250.618-342.747 250.618-463.853 0-155.016-127.922-280.62-285.67-280.62-157.749 0-285.636 125.604-285.636 280.62 0 121.106 174.322 363.56 250.619 463.853 8.235 10.933 21.246 17.232 35.016 17.232z m0-710.562c128.824 0 233.596 102.94 233.596 229.477 0 67.958-81.28 218.58-213.941 398.178-4.568 6.16-11.868 9.827-19.655 9.827-7.75 0-15.05-3.667-19.584-9.827-132.697-179.599-214.01-330.22-214.01-398.178 0-126.538 104.808-229.477 233.594-229.477z" fill="#8B8B8B" p-id="1016"></path><path d="M868.4 763.905c-13.7-15.986-32.42-29.205-54.255-38.217-17.75-7.371-37.404-10.936-57.818-12.458l-35.502 56.004c5.641 0.69 10.242 0.344 14.534 0.62l30.172 1.594c42.041 6.227 62.94 27.265 68.408 33.631 6.193 7.269 10.102 15.433 10.102 21.247 0 9.896-17.717 34.116-84.704 54.463-62.007 18.754-149.48 29.065-246.329 29.065-96.919 0-184.911-10.45-247.748-29.41-68.096-20.556-86.089-44.844-86.089-54.81 0-14.188 3.737-22.56 13.356-30.103 12.941-10.174 34.394-16.819 63.287-19.863 0.587 0 2.319-0.137 3.632-0.208 3.22-0.205 10.52-0.759 28.34-1.938 4.186-0.483 8.685-0.413 14.013-1.036l-35.605-55.035c-45.12 2.872-78.65 12.388-100.828 29.774-23.391 18.41-35.294 44.707-35.294 78.41 0 27.541 13.183 51.486 39.169 71.485 19.965 15.363 48.2 28.65 83.838 39.446 66.748 20.138 159.03 31.21 259.928 31.21 100.83 0 192.697-10.934 258.544-30.933 35.293-10.657 63.182-23.875 82.974-39.307 25.605-19.86 38.615-43.875 38.615-71.21 0.002-22.006-8.58-43.597-24.74-62.42z" fill="#8B8B8B" p-id="1017"></path></svg>