<?xml version="1.0" standalone="no"?><!DOCTYPE svg PUBLIC "-//W3C//DTD SVG 1.1//EN" "http://www.w3.org/Graphics/SVG/1.1/DTD/svg11.dtd"><svg t="1494495494159" class="icon" style="" viewBox="0 0 1024 1024" version="1.1" xmlns="http://www.w3.org/2000/svg" p-id="1505" xmlns:xlink="http://www.w3.org/1999/xlink" width="48" height="48"><defs><style type="text/css"></style></defs><path d="M511.968 32.992C247.424 32.992 32.928 247.36 32.928 512c0 264.576 214.496 479.008 479.04 479.008 264.672 0 479.104-214.432 479.104-479.008C991.072 247.36 776.64 32.992 511.968 32.992zM784.288 363.552 438.944 717.024c-7.456 8.032-17.792 11.712-28.224 11.456-10.432 0.256-20.672-3.424-28.224-11.456l-142.848-150.976c-14.72-15.552-13.248-40.832 3.232-56.384 16.512-15.552 41.792-15.584 56.48-0.096l111.904 118.304 313.376-320.832c14.72-15.52 40-15.424 56.448 0.096C797.6 322.752 799.008 348.032 784.288 363.552z" p-id="1506" fill="#d81e06"></path></svg>