<?xml version="1.0" standalone="no"?><!DOCTYPE svg PUBLIC "-//W3C//DTD SVG 1.1//EN" "http://www.w3.org/Graphics/SVG/1.1/DTD/svg11.dtd"><svg t="1484710735068" class="icon" style="" viewBox="0 0 1024 1024" version="1.1" xmlns="http://www.w3.org/2000/svg" p-id="1463" xmlns:xlink="http://www.w3.org/1999/xlink" width="25" height="25"><defs><style type="text/css"></style></defs><path d="M993.196 93.802l-260.45 0L732.746 82.489c0-36.405-23.837-76.729-56.237-76.729L348.751 5.76c-32.377 0-56.215 40.323-56.215 76.729l0 11.313L32.086 93.802c-12.128 0-22.01 9.905-22.01 22.01s9.883 22.01 22.01 22.01l961.11 0c12.106 0 22.01-9.905 22.01-22.01S1005.302 93.802 993.196 93.802zM336.557 82.489c0-12.128 1.387-32.708 12.194-32.708l327.78 0c10.807 0 12.194 20.58 12.194 32.708l0 11.313L336.557 93.802 336.557 82.489zM512.641 816.472 512.641 816.472c-12.172 0-22.01-9.861-22.01-22.01L490.631 310.407c0-12.15 9.839-22.01 22.01-22.01l0 0c12.172 0 22.01 9.861 22.01 22.01l0 484.055C534.652 806.634 524.813 816.472 512.641 816.472zM336.888 732.106 336.888 732.106c-12.15 0-22.01-9.861-22.01-22.01l0-315.3c0-12.15 9.861-22.01 22.01-22.01l0 0c12.15 0 22.01 9.861 22.01 22.01l0 315.3C358.898 722.245 349.015 732.106 336.888 732.106zM688.395 732.106 688.395 732.106c-12.15 0-22.01-9.861-22.01-22.01l0-315.3c0-12.15 9.861-22.01 22.01-22.01l0 0c12.15 0 22.01 9.861 22.01 22.01l0 315.3C710.406 722.245 700.545 732.106 688.395 732.106zM886.82 203.854c-12.172 0-22.01 9.861-22.01 22.01 0 5.877 0 9.751 0 14.813l0 649.354c0 46.508-37.704 84.19-84.168 84.19L248.515 974.221c-48.621 0-88.042-39.421-88.042-88.042L160.473 240.678c0-5.062 0-9.465 0-14.813 0-12.15-9.839-22.01-22.01-22.01s-22.01 9.861-22.01 22.01c0 0.264 0.132 0.462 0.154 0.748-0.044 0.044-0.088 0.088-0.154 0.154l0 663.286c0 70.786 57.381 128.189 128.189 128.189l532.126 0c72.921 0 132.063-59.142 132.063-132.063L908.831 225.865C908.83 213.715 898.969 203.854 886.82 203.854z" p-id="1464" fill="#bfbfbf"></path></svg>