<?xml version="1.0" standalone="no"?><!DOCTYPE svg PUBLIC "-//W3C//DTD SVG 1.1//EN" "http://www.w3.org/Graphics/SVG/1.1/DTD/svg11.dtd"><svg t="1493121340817" class="icon" style="" viewBox="0 0 1024 1024" version="1.1" xmlns="http://www.w3.org/2000/svg" p-id="2375" xmlns:xlink="http://www.w3.org/1999/xlink" width="32" height="32"><defs><style type="text/css"></style></defs><path d="M992 352C992 350.4 992 350.4 992 352c0-3.2-1.6-4.8-1.6-8L908.8 134.4c-14.4-43.2-54.4-70.4-102.4-70.4l-576 0c-48 0-86.4 25.6-99.2 67.2L41.6 345.6c0 1.6-1.6 3.2-1.6 4.8-6.4 20.8-9.6 40-9.6 60.8 0 73.6 38.4 139.2 102.4 174.4 0 0 0 0 0 0 0 0 0 0 0 0l0 0c0 0 0 0 0 0C158.4 600 188.8 608 224 608c57.6 0 110.4-25.6 147.2-70.4 36.8 43.2 89.6 68.8 145.6 70.4 57.6 0 108.8-25.6 145.6-70.4 36.8 44.8 89.6 70.4 147.2 70.4 35.2 0 65.6-8 92.8-22.4 62.4-35.2 100.8-100.8 100.8-172.8C1001.6 392 998.4 371.2 992 352L992 352 992 352zM868.8 521.6c-16 9.6-35.2 12.8-59.2 12.8-43.2 0-81.6-22.4-104-59.2-1.6-3.2-4.8-9.6-9.6-14.4-6.4-6.4-16-14.4-33.6-14.4-14.4 0-27.2 6.4-33.6 14.4-4.8 4.8-8 11.2-9.6 14.4-22.4 36.8-60.8 59.2-102.4 59.2-41.6 0-81.6-22.4-104-59.2-1.6-3.2-4.8-9.6-8-12.8-16-20.8-52.8-19.2-67.2-1.6-4.8 6.4-8 11.2-9.6 16-22.4 36.8-60.8 59.2-104 59.2-22.4 0-41.6-4.8-57.6-12.8l0 0 0 0c-40-22.4-65.6-64-65.6-110.4 0-14.4 1.6-27.2 6.4-41.6 0-1.6 0-1.6 1.6-3.2l86.4-209.6c1.6-4.8 6.4-22.4 33.6-22.4l576 0c11.2 0 30.4 3.2 36.8 22.4l81.6 208c0 1.6 0 3.2 1.6 4.8 4.8 12.8 6.4 27.2 6.4 41.6C932.8 457.6 907.2 500.8 868.8 521.6L868.8 521.6 868.8 521.6zM894.4 636.8c-19.2 0-35.2 16-35.2 35.2l0 195.2c0 11.2-9.6 20.8-19.2 20.8l-659.2 0c-11.2 0-19.2-9.6-19.2-19.2l0-192c0-19.2-16-35.2-35.2-35.2l0 0c-19.2 0-35.2 16-35.2 35.2l0 192c0 51.2 40 91.2 89.6 91.2l659.2 0c49.6 0 89.6-41.6 89.6-91.2l0-195.2C929.6 652.8 913.6 636.8 894.4 636.8L894.4 636.8 894.4 636.8zM790.4 387.2l-560 0c-19.2 0-35.2-16-35.2-35.2 0-19.2 16-35.2 35.2-35.2l560 0c19.2 0 35.2 16 35.2 35.2C825.6 369.6 809.6 387.2 790.4 387.2L790.4 387.2 790.4 387.2zM790.4 387.2" p-id="2376" fill="#8a8a8a"></path></svg>