<?xml version="1.0" standalone="no"?><!DOCTYPE svg PUBLIC "-//W3C//DTD SVG 1.1//EN" "http://www.w3.org/Graphics/SVG/1.1/DTD/svg11.dtd"><svg t="1492237587100" class="icon" style="" viewBox="0 0 1024 1024" version="1.1" xmlns="http://www.w3.org/2000/svg" p-id="10660" xmlns:xlink="http://www.w3.org/1999/xlink" width="16" height="16"><defs><style type="text/css"></style></defs><path d="M493.941 535.301l1.165 1.165M512 56.452c-251.659 0-456.13 203.89-456.13 456.13s203.89 456.13 456.13 456.13 456.13-203.89 456.13-456.13-204.473-456.13-456.13-456.13zM647.732 648.315c-11.069 11.069-30.875 10.485-43.691-2.331l-109.518-109.518c-6.991-5.825-11.651-15.146-11.651-25.632v-272.629c0-17.476 13.398-32.039 29.127-32.039s29.127 14.563 29.127 32.039v262.726l104.858 104.275c12.234 12.234 13.398 32.039 1.747 43.108z" fill="#F98700" p-id="10661"></path></svg>